<svg width="56" height="56" viewBox="0 0 56 56" fill="none" xmlns="http://www.w3.org/2000/svg">
<path d="M28.8711 29.5039C29.5562 28.8221 29.5585 27.714 28.8765 27.0292C28.1944 26.3444 27.0863 26.342 26.4015 27.0238L28.8711 29.5039ZM17.9875 23.9914L19.2242 22.7533L19.2223 22.7514L17.9875 23.9914ZM26.688 15.8533C27.501 16.3759 28.5839 16.1405 29.1063 15.3275C29.629 14.5145 29.3935 13.4317 28.5806 12.9091L26.688 15.8533ZM32.0486 38.1207L30.812 39.359C30.839 39.3861 30.8668 39.4122 30.8957 39.4374L32.0486 38.1207ZM43.0463 27.3141C42.5206 26.503 41.437 26.2718 40.626 26.7975C39.8149 27.3234 39.5837 28.407 40.1094 29.2179L43.0463 27.3141ZM33.1101 39.0503L34.3449 37.8101L34.305 37.7707L34.263 37.7338L33.1101 39.0503ZM14.1826 31.3069C14.8664 30.6237 14.8671 29.5158 14.1841 28.8319C13.5011 28.148 12.393 28.1473 11.7092 28.8305L14.1826 31.3069ZM7.00549 31.3069C7.68932 30.6237 7.69 29.5158 7.00701 28.8319C6.32399 28.148 5.21596 28.1473 4.53213 28.8305L7.00549 31.3069ZM27.08 44.3026C27.7639 43.6194 27.7646 42.5116 27.0814 41.8277C26.3985 41.1438 25.2906 41.1431 24.6067 41.8263L27.08 44.3026ZM27.08 51.4709C27.7639 50.7879 27.7646 49.6798 27.0814 48.9961C26.3985 48.3122 25.2906 48.3115 24.6067 48.9945L27.08 51.4709ZM24.8099 40.1003C25.4934 39.4169 25.4934 38.3088 24.8099 37.6253C24.1265 36.9419 23.0184 36.9419 22.335 37.6253L24.8099 40.1003ZM17.4293 42.5309C16.7459 43.2144 16.7459 44.3225 17.4293 45.0059C18.1127 45.6893 19.2208 45.6893 19.9042 45.0059L17.4293 42.5309ZM18.3332 33.6314C19.0166 32.9479 19.0166 31.8401 18.3332 31.1566C17.6498 30.4732 16.5417 30.4732 15.8583 31.1566L18.3332 33.6314ZM10.9189 36.0961C10.2355 36.7795 10.2355 37.8874 10.9189 38.5708C11.6023 39.2542 12.7103 39.2542 13.3937 38.5708L10.9189 36.0961ZM17.4077 41.0236C18.0987 40.3479 18.111 39.24 17.4353 38.5489C16.7595 37.858 15.6515 37.8456 14.9605 38.5213L17.4077 41.0236ZM10.9715 42.4227C10.2806 43.0984 10.2682 44.2063 10.944 44.8974C11.6198 45.5883 12.7278 45.6007 13.4187 44.9249L10.9715 42.4227ZM46.6343 20.7572L34.7653 32.5762L37.2349 35.0563L49.1039 23.2373L46.6343 20.7572ZM26.0832 32.5762L23.2955 29.8L20.8258 32.2801L23.6136 35.0563L26.0832 32.5762ZM23.2955 21.1756L35.1646 9.35655L32.6947 6.87645L20.8258 18.6955L23.2955 21.1756ZM42.2934 6.41676H43.4481V2.91676H42.2934V6.41676ZM49.5834 12.5189V13.6688L53.0834 13.6688V12.5189H49.5834ZM43.4481 6.41676C45.3559 6.41676 46.6114 6.42045 47.542 6.54502C48.423 6.66297 48.746 6.85979 48.9438 7.05672L51.4134 4.57662C50.4565 3.62364 49.2728 3.24553 48.0065 3.07599C46.7897 2.91307 45.2574 2.91676 43.4481 2.91676V6.41676ZM53.0834 12.5189C53.0834 10.7178 53.0871 9.19019 52.9233 7.97678C52.7525 6.71225 52.3715 5.53063 51.4134 4.57662L48.9438 7.05672C49.1405 7.25263 49.3368 7.57136 49.4548 8.44508C49.5797 9.3699 49.5834 10.6184 49.5834 12.5189H53.0834ZM23.2955 29.8C21.9461 28.4565 21.0616 27.5703 20.4928 26.8278C19.9546 26.1255 19.868 25.7622 19.868 25.4878H16.368C16.368 26.8397 16.9385 27.9439 17.7145 28.9565C18.4599 29.9295 19.5467 31.0064 20.8258 32.2801L23.2955 29.8ZM23.6136 35.0563C24.893 36.3301 25.9743 37.4123 26.951 38.1543C27.9683 38.9271 29.0734 39.4922 30.4242 39.4922V35.9922C30.1418 35.9922 29.7734 35.9031 29.0683 35.3674C28.3225 34.8006 27.4326 33.9198 26.0832 32.5762L23.6136 35.0563ZM49.1039 23.2373C50.7116 21.6363 51.8838 20.513 52.4989 19.0339L49.2675 17.6897C48.9823 18.375 48.4452 18.9539 46.6343 20.7572L49.1039 23.2373ZM49.5834 13.6688C49.5834 16.2192 49.5521 17.0051 49.2675 17.6897L52.4989 19.0339C53.1147 17.554 53.0834 15.9327 53.0834 13.6688L49.5834 13.6688ZM35.1646 9.35655C36.9745 7.5541 37.5569 7.0178 38.2478 6.73283L36.9132 3.49725C35.4303 4.10884 34.3033 5.27466 32.6947 6.87645L35.1646 9.35655ZM42.2934 2.91676C40.0184 2.91676 38.3951 2.88601 36.9132 3.49725L38.2478 6.73283C38.9394 6.44751 39.7337 6.41676 42.2934 6.41676V2.91676ZM24.6893 33.6682L28.8711 29.5039L26.4015 27.0238L22.2198 31.1881L24.6893 33.6682L..." fill="black"/>
</svg>
